<mxfile host="app.diagrams.net" modified="2024-02-05T08:19:35.130Z" agent="Mozilla/5.0 (Windows NT 10.0; Win64; x64) AppleWebKit/537.36 (KHTML, like Gecko) Chrome/121.0.0.0 Safari/537.36" etag="1WxP3gk15fh1b0DMeriK" version="23.1.1" type="github">
  <diagram name="Page-1" id="e56a1550-8fbb-45ad-956c-1786394a9013">
    <mxGraphModel dx="2049" dy="1169" grid="1" gridSize="10" guides="1" tooltips="1" connect="1" arrows="1" fold="1" page="1" pageScale="1" pageWidth="1100" pageHeight="850" background="none" math="0" shadow="0">
      <root>
        <mxCell id="0" />
        <mxCell id="1" parent="0" />
        <mxCell id="NBP3xJqMvAoc9QIL1dNQ-7" value="" style="group;fontFamily=Times New Roman;" vertex="1" connectable="0" parent="1">
          <mxGeometry x="38" y="41" width="372" height="189" as="geometry" />
        </mxCell>
        <mxCell id="NBP3xJqMvAoc9QIL1dNQ-1" value="&lt;h1 style=&quot;line-height: 250%;&quot;&gt;&lt;b style=&quot;&quot;&gt;&lt;font color=&quot;#ff6666&quot; face=&quot;Garamond&quot; style=&quot;font-size: 18px;&quot;&gt;User Requirements&lt;/font&gt;&lt;/b&gt;&lt;/h1&gt;" style="text;html=1;align=center;verticalAlign=middle;resizable=0;points=[];autosize=1;strokeColor=none;fillColor=none;" vertex="1" parent="NBP3xJqMvAoc9QIL1dNQ-7">
          <mxGeometry x="-9.642857142857146" y="-40" width="170" height="110" as="geometry" />
        </mxCell>
        <mxCell id="NBP3xJqMvAoc9QIL1dNQ-2" value="&lt;ul&gt;&lt;li&gt;&lt;font face=&quot;Garamond&quot;&gt;Users can post tweets(+ photos, videos)&lt;/font&gt;&lt;/li&gt;&lt;li&gt;&lt;font face=&quot;ABg3oSwbC5iNjlSyIxZX&quot;&gt;Users can delete tweets&lt;/font&gt;&lt;/li&gt;&lt;li&gt;&lt;font face=&quot;ABg3oSwbC5iNjlSyIxZX&quot;&gt;Users can see other posts&lt;/font&gt;&lt;/li&gt;&lt;li&gt;&lt;font face=&quot;ABg3oSwbC5iNjlSyIxZX&quot;&gt;Authentication&lt;/font&gt;&lt;/li&gt;&lt;/ul&gt;" style="text;html=1;align=left;verticalAlign=middle;resizable=0;points=[];autosize=1;strokeColor=none;fillColor=none;" vertex="1" parent="NBP3xJqMvAoc9QIL1dNQ-7">
          <mxGeometry x="50" y="35.00454545454545" width="250" height="100" as="geometry" />
        </mxCell>
        <mxCell id="NBP3xJqMvAoc9QIL1dNQ-9" value="" style="group;fontFamily=Times New Roman;dashed=1;dashPattern=1 4;" vertex="1" connectable="0" parent="1">
          <mxGeometry x="38" y="250" width="470" height="449.00454545454545" as="geometry" />
        </mxCell>
        <mxCell id="NBP3xJqMvAoc9QIL1dNQ-10" value="&lt;h1 style=&quot;line-height: 250%;&quot;&gt;&lt;b style=&quot;&quot;&gt;&lt;font face=&quot;Garamond&quot; style=&quot;font-size: 18px;&quot;&gt;Metrics &amp;amp; Resource Allocation&lt;/font&gt;&lt;/b&gt;&lt;/h1&gt;" style="text;html=1;align=left;verticalAlign=middle;resizable=0;points=[];autosize=1;strokeColor=none;fillColor=none;" vertex="1" parent="NBP3xJqMvAoc9QIL1dNQ-9">
          <mxGeometry x="-0.002857142857145334" y="-30" width="260" height="110" as="geometry" />
        </mxCell>
        <mxCell id="NBP3xJqMvAoc9QIL1dNQ-11" value="&lt;ul&gt;&lt;li&gt;&lt;font face=&quot;Garamond&quot;&gt;20kb/tweet&lt;/font&gt;&lt;/li&gt;&lt;li&gt;&lt;font face=&quot;Garamond&quot;&gt;3mb-8mb/picture&lt;/font&gt;&lt;/li&gt;&lt;li&gt;&lt;font face=&quot;Garamond&quot;&gt;240 mb/ video&lt;/font&gt;&lt;/li&gt;&lt;li&gt;&lt;font face=&quot;CfSvEBZ2BJ6MO1ooFi9K&quot;&gt;1 Billion Total Users&amp;nbsp;&lt;/font&gt;&lt;/li&gt;&lt;li&gt;&lt;font face=&quot;CfSvEBZ2BJ6MO1ooFi9K&quot;&gt;200 Million active users&lt;/font&gt;&lt;/li&gt;&lt;/ul&gt;" style="text;html=1;align=left;verticalAlign=middle;resizable=0;points=[];autosize=1;strokeColor=none;fillColor=none;" vertex="1" parent="NBP3xJqMvAoc9QIL1dNQ-9">
          <mxGeometry x="50" y="30.00454545454545" width="180" height="110" as="geometry" />
        </mxCell>
        <mxCell id="NBP3xJqMvAoc9QIL1dNQ-21" value="" style="group;align=left;fontColor=#009900;" vertex="1" connectable="0" parent="1">
          <mxGeometry x="330" y="250" width="370" height="120" as="geometry" />
        </mxCell>
        <mxCell id="NBP3xJqMvAoc9QIL1dNQ-17" value="&lt;h1&gt;&lt;font color=&quot;#00cc00&quot; style=&quot;font-size: 21px;&quot;&gt;5440 TB pictures/ day&lt;/font&gt;&lt;/h1&gt;" style="text;html=1;align=center;verticalAlign=middle;resizable=0;points=[];autosize=1;strokeColor=none;fillColor=none;fontSize=12;fontFamily=Times New Roman;fontColor=default;" vertex="1" parent="NBP3xJqMvAoc9QIL1dNQ-21">
          <mxGeometry width="220" height="70" as="geometry" />
        </mxCell>
        <mxCell id="NBP3xJqMvAoc9QIL1dNQ-19" value="" style="group" vertex="1" connectable="0" parent="NBP3xJqMvAoc9QIL1dNQ-21">
          <mxGeometry y="50" width="370" height="70" as="geometry" />
        </mxCell>
        <mxCell id="NBP3xJqMvAoc9QIL1dNQ-14" value="&lt;h1&gt;&lt;span style=&quot;font-size: 12px;&quot;&gt;40 TB Tweets/ day&lt;/span&gt;&lt;/h1&gt;" style="text;html=1;align=center;verticalAlign=middle;resizable=0;points=[];autosize=1;strokeColor=none;fillColor=none;fontSize=12;fontFamily=Times New Roman;fontColor=default;" vertex="1" parent="NBP3xJqMvAoc9QIL1dNQ-19">
          <mxGeometry width="120" height="70" as="geometry" />
        </mxCell>
        <mxCell id="NBP3xJqMvAoc9QIL1dNQ-15" value="&lt;h1&gt;&lt;span style=&quot;font-size: 12px;&quot;&gt;1600 TB pictures/ day&lt;/span&gt;&lt;/h1&gt;" style="text;html=1;align=center;verticalAlign=middle;resizable=0;points=[];autosize=1;strokeColor=none;fillColor=none;fontSize=12;fontFamily=Times New Roman;fontColor=default;" vertex="1" parent="NBP3xJqMvAoc9QIL1dNQ-19">
          <mxGeometry x="105" width="140" height="70" as="geometry" />
        </mxCell>
        <mxCell id="NBP3xJqMvAoc9QIL1dNQ-16" value="&lt;h1&gt;&lt;span style=&quot;font-size: 12px;&quot;&gt;4800 TB pictures/ day&lt;/span&gt;&lt;/h1&gt;" style="text;html=1;align=center;verticalAlign=middle;resizable=0;points=[];autosize=1;strokeColor=none;fillColor=none;fontSize=12;fontFamily=Times New Roman;fontColor=default;" vertex="1" parent="NBP3xJqMvAoc9QIL1dNQ-19">
          <mxGeometry x="230" width="140" height="70" as="geometry" />
        </mxCell>
        <mxCell id="NBP3xJqMvAoc9QIL1dNQ-38" value="&lt;h1 style=&quot;line-height: 123%;&quot;&gt;&lt;ul style=&quot;line-height: 123%;&quot;&gt;&lt;li style=&quot;text-align: left;&quot;&gt;&lt;font face=&quot;Garamond&quot; color=&quot;#ff6666&quot;&gt;&lt;span style=&quot;font-size: 18px;&quot;&gt;Availability&lt;/span&gt;&lt;/font&gt;&lt;/li&gt;&lt;li style=&quot;text-align: left;&quot;&gt;&lt;font face=&quot;Garamond&quot; color=&quot;#ff6666&quot;&gt;&lt;span style=&quot;font-size: 18px;&quot;&gt;Consistency&lt;/span&gt;&lt;/font&gt;&lt;/li&gt;&lt;li style=&quot;text-align: left;&quot;&gt;&lt;font face=&quot;Garamond&quot; color=&quot;#ff6666&quot;&gt;&lt;span style=&quot;font-size: 18px;&quot;&gt;Scalability&lt;/span&gt;&lt;/font&gt;&lt;/li&gt;&lt;li style=&quot;text-align: left;&quot;&gt;&lt;font face=&quot;Garamond&quot; color=&quot;#ff6666&quot;&gt;&lt;span style=&quot;font-size: 18px;&quot;&gt;Efficiency&lt;/span&gt;&lt;/font&gt;&lt;/li&gt;&lt;li style=&quot;text-align: left;&quot;&gt;&lt;font face=&quot;Garamond&quot; color=&quot;#ff6666&quot;&gt;&lt;span style=&quot;font-size: 18px;&quot;&gt;Performance&lt;/span&gt;&lt;/font&gt;&lt;/li&gt;&lt;li style=&quot;text-align: left;&quot;&gt;&lt;font face=&quot;Garamond&quot; color=&quot;#ff6666&quot;&gt;&lt;span style=&quot;font-size: 18px;&quot;&gt;Point of Failure&lt;/span&gt;&lt;/font&gt;&lt;/li&gt;&lt;li style=&quot;border-color: var(--border-color); text-align: left;&quot;&gt;&lt;font style=&quot;border-color: var(--border-color); font-size: 18px;&quot; face=&quot;Garamond&quot; color=&quot;#ff6666&quot;&gt;Resiliency/Fault Tolerance&lt;/font&gt;&lt;/li&gt;&lt;li style=&quot;border-color: var(--border-color); text-align: left;&quot;&gt;&lt;font style=&quot;border-color: var(--border-color); font-size: 18px;&quot; face=&quot;Garamond&quot; color=&quot;#ff6666&quot;&gt;Logging &amp;amp; Monitoring&lt;/font&gt;&lt;/li&gt;&lt;li style=&quot;border-color: var(--border-color); text-align: left;&quot;&gt;&lt;font face=&quot;Garamond&quot; color=&quot;#ff6666&quot;&gt;&lt;span style=&quot;font-size: 18px;&quot;&gt;Common Mistakes&lt;/span&gt;&lt;/font&gt;&lt;/li&gt;&lt;li style=&quot;border-color: var(--border-color); text-align: left;&quot;&gt;&lt;font face=&quot;Garamond&quot; color=&quot;#ff6666&quot;&gt;&lt;span style=&quot;font-size: 18px;&quot;&gt;Complexity&lt;/span&gt;&lt;/font&gt;&lt;/li&gt;&lt;/ul&gt;&lt;/h1&gt;" style="text;html=1;align=center;verticalAlign=middle;resizable=0;points=[];autosize=1;strokeColor=none;fillColor=none;" vertex="1" parent="1">
          <mxGeometry x="807.4971428571429" y="10" width="270" height="390" as="geometry" />
        </mxCell>
        <mxCell id="NBP3xJqMvAoc9QIL1dNQ-35" value="" style="group;fontFamily=Times New Roman;" vertex="1" connectable="0" parent="1">
          <mxGeometry x="268" y="730" width="389" height="100" as="geometry" />
        </mxCell>
        <mxCell id="NBP3xJqMvAoc9QIL1dNQ-36" value="&lt;p style=&quot;line-height: 373%;&quot;&gt;&lt;/p&gt;&lt;h1 style=&quot;line-height: 443%;&quot;&gt;&lt;b style=&quot;&quot;&gt;&lt;font color=&quot;#007fff&quot; face=&quot;Garamond&quot; style=&quot;font-size: 37px;&quot;&gt;User Timeline&lt;/font&gt;&lt;/b&gt;&lt;/h1&gt;&lt;p&gt;&lt;/p&gt;" style="text;html=1;align=center;verticalAlign=middle;resizable=0;points=[];autosize=1;strokeColor=none;fillColor=none;" vertex="1" parent="NBP3xJqMvAoc9QIL1dNQ-35">
          <mxGeometry x="69.01314132104453" y="-15.873015873015872" width="240" height="160" as="geometry" />
        </mxCell>
        <mxCell id="NBP3xJqMvAoc9QIL1dNQ-39" value="" style="group" vertex="1" connectable="0" parent="1">
          <mxGeometry x="230" y="840" width="480" height="240" as="geometry" />
        </mxCell>
        <mxCell id="NBP3xJqMvAoc9QIL1dNQ-31" value="" style="rounded=1;whiteSpace=wrap;html=1;pointerEvents=0;align=center;verticalAlign=top;fontFamily=Times New Roman;fontSize=12;fontColor=default;fillColor=none;gradientColor=none;dashed=1;" vertex="1" parent="NBP3xJqMvAoc9QIL1dNQ-39">
          <mxGeometry width="480" height="240" as="geometry" />
        </mxCell>
        <mxCell id="cVgDjW6s2lwdf_HBZ_4n-1" value="Object" style="html=1;whiteSpace=wrap;fillColor=#dae8fc;strokeColor=#6c8ebf;" parent="NBP3xJqMvAoc9QIL1dNQ-39" vertex="1">
          <mxGeometry x="62.5" y="90" width="110" height="50" as="geometry" />
        </mxCell>
        <mxCell id="cVgDjW6s2lwdf_HBZ_4n-2" value="Object" style="html=1;whiteSpace=wrap;fillColor=#dae8fc;strokeColor=#6c8ebf;" parent="NBP3xJqMvAoc9QIL1dNQ-39" vertex="1">
          <mxGeometry x="307.5" y="90" width="110" height="50" as="geometry" />
        </mxCell>
        <mxCell id="NBP3xJqMvAoc9QIL1dNQ-28" style="edgeStyle=orthogonalEdgeStyle;rounded=0;orthogonalLoop=1;jettySize=auto;html=1;exitX=1;exitY=0.5;exitDx=0;exitDy=0;entryX=0;entryY=0.5;entryDx=0;entryDy=0;fontFamily=Times New Roman;fontSize=12;fontColor=default;" edge="1" parent="NBP3xJqMvAoc9QIL1dNQ-39" source="cVgDjW6s2lwdf_HBZ_4n-1" target="cVgDjW6s2lwdf_HBZ_4n-2">
          <mxGeometry relative="1" as="geometry" />
        </mxCell>
      </root>
    </mxGraphModel>
  </diagram>
</mxfile>
